<svg xmlns="http://www.w3.org/2000/svg" viewBox="0 0 213.47 187.46"><defs><style>.cls-1{fill:#ca0610;}.cls-2{fill:#1d1d1b;}</style></defs><g id="Calque_2" data-name="Calque 2"><g id="Calque_1-2" data-name="Calque 1"><path class="cls-1" d="M190.31,84.56a28.68,28.68,0,0,1-1.67-57.32A71,71,0,0,0,132.69,0c-35.8,0-66.3,27.32-71.27,61.74l80,80A71.15,71.15,0,0,0,203,81.58,28.49,28.49,0,0,1,190.31,84.56Z"/><path class="cls-2" d="M190.31,32.72a23,23,0,0,0-13.6,4.42,11.13,11.13,0,1,1-7.77,10.61c0-.31,0-.61,0-.9a23.16,23.16,0,1,0,21.33-14.13Z"/><path class="cls-2" d="M148.61,161.38H83.48a4.5,4.5,0,0,1,0-9h65.13a58.89,58.89,0,0,0,25.72-5.76c13.31-6.52,20.21-15.88,20.53-27.83a4.5,4.5,0,0,1,9,.24c-.41,15.35-9.25,27.68-25.57,35.67A67.83,67.83,0,0,1,148.61,161.38Z"/><path class="cls-2" d="M156.75,178.81H112.12a4.5,4.5,0,0,1,0-9h44.63a4.5,4.5,0,0,1,0,9Z"/><path class="cls-2" d="M99.57,109l-8,8,.22.21h0l-.22-.21L37.88,170.67l-6.37-6.35,61.7-61.71L61,70c-1.63,5.08-1.53,10.61,0,16.54,5.55.41,10.84,5.64,12.27,12.09.78,14.69-10.34,22.79-12.07,24.51L16.41,155.85a4.42,4.42,0,0,0,0,6.24l24.08,24.08a4.42,4.42,0,0,0,6.24,0l32.74-44.83c1.72-1.73,9.82-12.85,24.51-12.07l-.2-.19h0l.2.19c6.45,1.43,11.88,7,12.3,12.53,5.92,1.54,11.45,1.65,16.53,0Z"/><path class="cls-2" d="M50.32,113H10.22a4.5,4.5,0,1,1,0-9h40.1a4.5,4.5,0,0,1,0,9Z"/><path class="cls-2" d="M48.64,95H4.5a4.5,4.5,0,0,1,0-9H48.64a4.5,4.5,0,0,1,0,9Z"/><path class="cls-2" d="M46.17,77.56h-10a4.5,4.5,0,1,1,0-9h10a4.5,4.5,0,0,1,0,9Z"/><path class="cls-2" d="M52.31,48.31H11.79a4.5,4.5,0,0,1,0-9H52.31a4.5,4.5,0,0,1,0,9Z"/><path class="cls-2" d="M62.56,28.81h-36a4.5,4.5,0,0,1,0-9h36a4.5,4.5,0,0,1,0,9Z"/><circle class="cls-2" cx="16.76" cy="61.11" r="4.71"/></g></g></svg>